<?xml version="1.0" standalone="no"?>
<!DOCTYPE svg PUBLIC "-//W3C//DTD SVG 20010904//EN"
 "http://www.w3.org/TR/2001/REC-SVG-20010904/DTD/svg10.dtd">
<svg version="1.0" xmlns="http://www.w3.org/2000/svg"
 width="1080.000000pt" height="1080.000000pt" viewBox="0 0 1080.000000 1080.000000"
 preserveAspectRatio="xMidYMid meet">

<g transform="translate(0.000000,1080.000000) scale(0.100000,-0.100000)"
fill="#2e87c8" stroke="none">
<path d="M5080 9465 c-8 -2 -69 -8 -135 -15 -66 -6 -142 -16 -170 -21 -27 -5
-75 -14 -105 -20 -550 -106 -1063 -347 -1510 -708 -128 -103 -376 -353 -483
-486 -203 -252 -369 -531 -502 -840 -34 -80 -105 -288 -136 -400 -6 -22 -15
-51 -19 -65 -19 -56 -72 -365 -87 -505 -10 -91 -10 -559 0 -650 26 -237 85
-538 127 -650 4 -11 15 -42 23 -70 20 -66 65 -192 82 -230 7 -16 23 -55 36
-85 28 -66 145 -295 186 -365 284 -480 701 -899 1178 -1184 349 -208 692 -340
1095 -421 344 -70 844 -78 1190 -19 250 42 514 114 695 189 161 67 217 93 315
143 589 303 1091 788 1411 1362 56 100 99 190 178 368 10 23 40 107 66 187 26
80 51 154 56 165 7 18 18 63 48 200 22 96 41 209 61 355 26 195 21 584 -10
825 -16 124 -50 305 -81 425 -16 63 -107 336 -125 379 -9 20 -20 45 -24 56
-20 51 -46 107 -90 196 -209 424 -497 790 -865 1100 -82 69 -309 239 -319 239
-2 0 -44 25 -92 56 -115 72 -391 209 -519 258 -182 69 -199 75 -270 95 -339
98 -653 142 -992 140 -109 -1 -205 -3 -213 -4z m185 -380 l0 -310 -130 -7
c-71 -3 -188 -16 -260 -28 -524 -88 -993 -316 -1395 -680 -24 -22 -47 -40 -50
-40 -3 0 -102 97 -220 215 l-215 215 70 68 c189 183 433 355 710 503 50 26
128 64 175 84 47 21 103 45 125 55 117 51 431 145 575 172 227 42 459 68 575
64 l40 -1 0 -310z m395 294 c52 -5 118 -14 145 -19 28 -5 91 -17 140 -26 50
-8 133 -27 185 -41 52 -13 109 -28 125 -33 100 -26 320 -110 462 -176 283
-131 601 -344 823 -552 l85 -80 -185 -186 c-185 -187 -223 -214 -220 -158 3
46 1 52 -23 52 -37 0 -56 21 -66 72 -9 52 -25 78 -47 78 -8 0 -19 11 -24 25
-5 14 -14 25 -20 25 -6 0 -15 11 -20 25 -7 19 -17 25 -39 25 -22 0 -37 10 -60
39 -25 31 -41 41 -74 46 -23 4 -46 11 -52 15 -33 24 -121 15 -152 -16 -29 -29
-93 -16 -222 42 -295 133 -623 215 -921 230 -69 4 -133 11 -142 16 -17 8 -18
33 -18 301 0 219 3 296 12 305 14 14 129 10 308 -9z m-390 -958 l0 -278 -37
-7 c-21 -3 -65 -6 -98 -6 -33 0 -98 -7 -144 -15 -409 -73 -713 -213 -1030
-478 l-83 -70 -195 195 c-132 132 -192 199 -188 208 9 19 134 127 249 213 165
125 377 245 566 321 52 21 104 42 115 47 172 72 542 144 763 148 l82 1 0 -279z
m405 258 c214 -37 432 -91 520 -128 11 -5 52 -21 90 -36 39 -16 91 -39 118
-52 43 -21 47 -27 47 -58 0 -24 5 -35 14 -35 8 0 27 -11 42 -25 15 -14 31 -25
36 -25 4 0 16 -17 25 -37 8 -21 20 -48 26 -60 5 -12 7 -32 4 -46 -5 -19 0 -28
24 -47 30 -21 31 -25 25 -74 -4 -38 -2 -58 9 -72 8 -10 15 -36 15 -56 0 -51
28 -67 67 -39 61 42 113 29 166 -41 46 -62 45 -68 -39 -157 -87 -93 -116 -103
-122 -41 -3 24 2 38 14 47 16 11 15 15 -11 50 -56 76 -87 103 -120 103 -38 0
-75 25 -75 50 0 23 -111 135 -141 143 -12 3 -22 0 -26 -9 -3 -8 -4 -16 -2 -17
2 -1 17 -9 33 -17 16 -8 38 -27 49 -42 19 -26 19 -28 2 -54 -14 -22 -15 -28
-4 -35 8 -5 20 -9 27 -9 7 0 15 -13 18 -30 4 -16 17 -36 30 -45 23 -15 34 -55
16 -55 -5 0 -58 33 -118 73 -76 51 -109 79 -109 93 0 15 7 19 34 19 41 0 49
15 22 39 -15 14 -27 16 -48 11 -15 -5 -38 -7 -50 -6 -13 1 -26 -6 -32 -17 -10
-19 -16 -17 -138 34 -137 57 -294 105 -408 124 -38 7 -92 16 -118 21 -26 5
-76 9 -110 9 -34 0 -79 5 -99 11 l-38 10 0 142 0 142 35 29 c19 16 35 34 35
40 0 6 -15 18 -33 27 -30 15 -32 19 -35 79 -5 98 -12 94 141 86 72 -4 159 -11
192 -17z m-2515 -504 l214 -214 -20 -23 c-10 -12 -35 -40 -55 -63 -104 -114
-236 -294 -315 -430 -42 -70 -139 -268 -164 -330 -12 -33 -29 -73 -36 -90 -79
-183 -164 -593 -164 -795 0 -88 -2 -100 -19 -110 -32 -16 -572 -13 -596 4 -20
14 -20 -4 5 288 11 129 40 307 69 423 6 22 14 58 20 80 21 92 69 241 101 320
4 11 20 52 35 90 32 80 152 328 191 395 61 105 98 165 104 170 3 3 17 23 30
44 74 122 352 456 379 456 3 0 103 -97 221 -215z m4576 163 c63 -67 161 -181
200 -233 16 -22 31 -42 35 -45 12 -11 139 -200 184 -275 133 -222 268 -528
335 -760 80 -280 130 -588 130 -799 0 -101 -1 -106 -22 -111 -13 -3 -149 -4
-303 -3 l-280 3 -6 60 c-4 33 -10 98 -13 145 -4 47 -11 108 -16 135 -5 28 -14
79 -21 115 -19 110 -67 298 -90 355 -4 11 -18 49 -30 85 -12 36 -35 93 -51
127 -31 67 -28 91 11 112 25 14 17 54 -21 104 -73 97 -86 114 -104 147 -25 46
-83 113 -105 122 -25 10 -95 101 -110 143 -9 25 -20 36 -40 40 -15 4 -44 25
-64 48 -20 23 -47 54 -61 70 -14 15 -24 36 -22 48 3 18 393 419 408 419 3 0
28 -24 56 -52z m-2466 -582 l0 -304 -87 -11 c-155 -20 -228 -38 -363 -89 -151
-57 -277 -131 -413 -245 l-38 -31 -217 217 -217 218 55 52 c157 148 410 301
620 376 19 7 44 17 55 22 20 8 121 37 205 58 89 22 217 39 308 40 l92 1 0
-304z m330 289 c221 -35 383 -86 575 -179 129 -63 302 -172 360 -226 102 -96
118 -110 126 -110 33 0 -17 -61 -201 -245 l-209 -209 -28 22 c-167 135 -322
224 -478 276 -93 32 -142 42 -283 61 -56 8 -107 17 -112 20 -6 4 -10 121 -10
306 l0 299 83 0 c45 0 125 -7 177 -15z m-1971 -339 l194 -194 -29 -35 c-16
-19 -50 -58 -75 -88 -163 -190 -317 -483 -389 -739 -7 -25 -16 -56 -20 -70 -8
-24 -20 -84 -40 -202 -5 -32 -12 -99 -16 -150 -4 -51 -11 -99 -17 -105 -7 -10
-72 -13 -262 -13 -140 0 -260 3 -269 6 -13 5 -16 22 -16 83 0 76 21 265 41
371 66 345 219 712 416 995 91 130 263 335 282 335 3 0 93 -87 200 -194z
m3337 -100 c16 -19 36 -45 46 -58 l16 -23 22 23 c36 38 64 24 77 -39 8 -45 31
-79 52 -79 25 0 92 -36 107 -58 7 -11 30 -22 51 -25 39 -7 92 -55 171 -157 49
-62 88 -100 104 -100 7 0 24 6 38 13 59 31 60 31 87 -31 25 -57 78 -209 94
-269 5 -18 13 -50 19 -70 36 -138 66 -330 75 -485 7 -112 6 -117 -14 -128 -22
-11 -523 -11 -535 1 -8 8 -30 234 -29 299 1 30 2 91 4 135 4 79 3 80 -21 83
-31 4 -50 28 -50 63 0 14 -6 32 -14 38 -8 6 -17 33 -21 59 -4 26 -15 64 -26
86 -10 21 -16 43 -13 48 12 19 -6 56 -30 62 -16 4 -32 22 -48 52 -21 43 -21
47 -5 59 22 16 22 30 -2 54 -10 10 -21 25 -23 32 -5 11 -8 12 -19 2 -7 -7 -16
-13 -21 -13 -14 0 -68 89 -68 113 0 15 -10 31 -25 41 -14 9 -25 22 -25 29 -1
17 -46 67 -61 67 -27 0 -49 33 -49 74 0 35 7 47 47 88 26 26 50 48 54 48 4 0
20 -15 35 -34z m-2867 -370 l213 -213 -69 -91 c-38 -50 -88 -124 -112 -165
-30 -49 -55 -79 -75 -89 -17 -8 -43 -21 -58 -28 -35 -17 -36 -30 -3 -30 18 0
25 -5 25 -19 0 -24 -13 -33 -85 -56 -33 -10 -64 -22 -69 -27 -6 -4 -26 -8 -47
-8 -34 0 -38 -3 -70 -62 -19 -35 -41 -80 -49 -100 -8 -20 -18 -40 -22 -44 -5
-4 -8 -26 -8 -49 0 -29 -6 -47 -19 -59 -11 -10 -21 -28 -23 -39 -5 -36 -44
-47 -170 -47 -140 0 -140 0 -132 111 24 362 170 753 390 1045 58 78 152 184
163 184 3 0 102 -96 220 -214z m2684 168 c20 -20 37 -44 37 -54 0 -10 9 -20
20 -23 11 -3 23 -13 27 -24 3 -10 21 -34 40 -53 44 -47 134 -191 131 -210 -2
-8 -14 -17 -28 -20 -17 -4 -26 -14 -28 -30 -2 -14 -11 -33 -19 -42 -14 -16
-11 -19 47 -35 45 -12 67 -24 78 -42 9 -14 29 -41 44 -59 38 -44 64 -105 95
-220 31 -114 40 -206 23 -227 -7 -8 -13 -36 -13 -62 -2 -46 -1 -48 25 -45 25
2 26 0 33 -59 5 -41 3 -65 -4 -72 -17 -17 -373 -20 -396 -3 -24 17 -4 54 36
68 27 9 29 14 24 40 -12 54 13 75 99 83 70 6 77 9 82 31 4 14 26 41 50 60 24
20 44 41 44 46 0 25 -30 77 -42 73 -17 -7 -48 -62 -48 -85 0 -11 -12 -31 -27
-45 -24 -22 -36 -25 -78 -23 -40 2 -51 7 -53 22 -3 11 3 25 13 32 11 8 15 20
11 32 -4 11 0 24 9 32 23 19 19 73 -10 104 -44 48 -100 33 -155 -42 -8 -12
-24 -22 -35 -24 -18 -3 -20 2 -18 44 3 46 2 47 -29 50 -26 2 -39 14 -72 63
-43 62 -48 65 -167 100 -53 15 -59 21 -105 88 -26 40 -64 89 -83 110 l-35 37
209 210 c115 116 214 210 220 210 6 0 27 -16 48 -36z m-1513 -314 l0 -280 -22
-4 c-13 -2 -50 -9 -83 -16 -96 -20 -110 -19 -108 8 3 26 -15 30 -25 4 -9 -23
-82 -88 -155 -136 l-58 -39 -197 197 -197 197 45 41 c193 174 492 294 763 306
l37 2 0 -280z m346 244 c202 -49 387 -144 538 -276 54 -47 31 -84 -25 -40 -22
18 -23 18 -55 -2 -42 -27 -43 -46 -4 -46 55 0 48 -26 -25 -100 -47 -48 -77
-70 -99 -73 -37 -6 -59 9 -53 35 6 22 -8 24 -17 3 -3 -8 -14 -15 -24 -15 -11
0 -25 -14 -35 -34 -14 -30 -14 -36 -1 -46 7 -7 14 -18 14 -25 0 -8 5 -15 12
-17 24 -8 -1 -35 -39 -41 -31 -6 -45 -2 -78 21 -22 15 -57 36 -77 45 -36 17
-47 35 -31 51 4 4 12 27 19 52 9 36 9 47 -2 51 -19 7 -55 -15 -94 -57 l-35
-38 -55 10 c-30 5 -66 13 -80 17 l-25 6 -3 265 c-1 146 0 271 3 278 7 19 143
7 271 -24z m-1076 -539 l164 -164 -28 -11 c-22 -8 -34 -7 -51 4 -18 12 -29 13
-52 4 -28 -10 -36 -7 -124 55 -70 50 -102 67 -127 67 -40 0 -88 -23 -102 -50
-10 -20 -50 -28 -50 -11 0 26 179 271 198 271 4 0 81 -74 172 -165z m1783 87
c9 -8 17 -20 17 -25 0 -6 9 -21 21 -33 26 -28 53 -135 36 -146 -7 -4 -19 -5
-27 -2 -41 17 -50 16 -50 -4 0 -23 -25 -46 -40 -37 -13 8 -40 72 -40 96 0 10
9 23 20 29 11 6 20 19 20 29 0 10 10 26 23 34 21 15 20 16 -30 16 -46 1 -54
-2 -77 -31 -15 -18 -31 -39 -37 -45 -5 -7 -14 -13 -19 -13 -10 0 -50 40 -50
50 0 3 21 27 48 52 37 37 56 48 87 51 50 4 75 -1 98 -21z m-1015 -181 c5 -46
-8 -55 -51 -38 -35 15 -35 15 -40 -11 -6 -28 24 -72 49 -72 6 0 19 -11 27 -24
11 -16 29 -26 54 -29 21 -3 52 -9 68 -12 40 -10 125 -92 125 -122 0 -22 -37
-56 -52 -47 -4 3 -8 1 -8 -4 0 -5 9 -12 19 -15 20 -5 41 9 41 28 0 5 9 16 19
22 16 10 24 9 43 -6 20 -17 21 -21 9 -44 -14 -26 -12 -37 11 -68 17 -25 -26
-108 -63 -121 -16 -5 -29 -14 -29 -19 0 -12 37 -11 45 1 24 40 82 -60 87 -150
3 -49 6 -55 26 -58 22 -3 23 -7 17 -45 -9 -64 -27 -127 -35 -127 -4 0 -10 -9
-13 -20 -5 -18 -14 -20 -82 -20 -71 0 -79 -2 -106 -29 -16 -16 -29 -36 -29
-45 0 -8 -4 -18 -10 -21 -5 -3 -10 -21 -10 -39 0 -20 -8 -40 -20 -51 -11 -10
-20 -30 -20 -45 0 -38 -18 -50 -77 -50 -138 0 -322 70 -408 157 -16 15 -15 18
14 45 20 19 41 28 62 28 18 0 48 5 66 12 26 9 38 10 52 1 15 -10 22 -8 37 8 9
10 22 19 29 19 15 0 35 43 35 75 0 14 9 34 19 44 34 34 43 61 36 106 -6 46
-27 66 -77 79 -25 6 -28 11 -28 46 0 34 -4 42 -26 52 -36 17 -58 0 -62 -48 -2
-24 -11 -43 -23 -52 -13 -9 -19 -25 -19 -53 0 -26 -5 -42 -15 -45 -8 -4 -15
-14 -15 -24 0 -11 -15 -23 -40 -33 -29 -11 -40 -21 -40 -36 0 -12 -5 -21 -10
-21 -13 0 -31 -44 -39 -95 -4 -26 -11 -40 -21 -40 -25 0 -99 118 -110 175 -11
57 -7 72 15 63 19 -7 19 -3 -1 37 -9 18 -30 40 -45 49 -28 15 -29 19 -29 89 0
78 8 87 46 51 20 -18 22 -28 17 -70 -7 -56 2 -61 38 -23 23 25 40 27 83 9 18
-8 19 -5 12 34 -5 34 -3 43 11 48 33 11 61 44 56 63 -6 23 33 90 53 90 19 0
18 39 -1 46 -8 4 -22 1 -31 -6 -11 -10 -18 -10 -26 -2 -9 9 -7 17 8 34 12 13
28 40 38 61 13 29 22 37 44 37 15 0 42 9 60 20 18 11 39 20 46 20 8 0 27 11
43 24 25 21 29 31 30 85 2 45 -1 61 -11 61 -14 0 -27 45 -19 66 5 13 84 33
123 31 21 -2 26 -8 28 -36z m-1371 -423 c16 -13 17 -98 1 -132 -6 -14 -20 -28
-31 -32 -23 -7 -137 4 -156 15 -8 5 -16 32 -19 59 -4 47 -2 54 27 83 31 31 33
32 99 25 36 -4 72 -12 79 -18z m-1320 -333 c4 -156 41 -393 91 -575 25 -93 23
-105 -20 -108 -40 -3 -96 20 -105 44 -6 16 -49 19 -58 4 -3 -5 -14 -10 -23
-10 -9 0 -30 -16 -45 -35 -30 -38 -51 -44 -61 -19 -12 32 -6 54 14 54 11 0 20
4 20 9 0 5 -24 11 -52 13 -68 4 -128 -22 -128 -56 0 -12 -3 -26 -7 -30 -8 -8
-13 -137 -5 -151 3 -5 7 -28 8 -50 1 -44 15 -91 48 -168 16 -37 26 -47 41 -45
23 3 33 56 16 85 -12 22 3 53 27 53 19 0 82 -53 82 -69 0 -6 9 -15 20 -21 15
-8 24 -5 45 17 l26 28 20 -27 c44 -59 78 -88 103 -88 16 0 26 -6 26 -15 0 -8
17 -23 38 -32 30 -15 43 -31 68 -83 40 -83 55 -95 118 -95 43 0 52 -3 62 -24
7 -12 31 -42 54 -66 32 -33 52 -45 85 -49 24 -4 51 -15 62 -24 38 -36 173
-202 173 -214 0 -23 -415 -430 -431 -423 -7 4 -48 45 -89 92 -41 46 -80 90
-86 97 -6 6 -55 70 -109 141 -162 216 -309 478 -410 731 -26 66 -51 128 -56
139 -11 26 -68 218 -81 270 -5 22 -13 56 -17 75 -33 135 -60 295 -71 423 -5
62 -12 146 -16 189 -4 42 -4 83 -1 92 6 15 40 16 314 14 l308 -3 2 -90z m635
10 c15 -171 17 -157 -19 -167 -20 -5 -39 -19 -47 -36 -8 -15 -36 -49 -62 -77
-26 -27 -53 -63 -59 -80 -18 -43 -29 -179 -17 -201 8 -14 5 -27 -11 -54 -25
-44 -88 -76 -164 -82 -61 -6 -56 -14 -104 167 -46 175 -79 396 -79 538 l0 77
278 -2 277 -3 7 -80z m313 75 c4 -6 -5 -24 -19 -41 -15 -17 -26 -43 -26 -59 0
-16 -5 -30 -11 -32 -5 -2 -14 -21 -19 -43 -7 -30 -6 -43 6 -56 20 -22 17 -48
-8 -75 -28 -29 -54 -31 -67 -5 -6 10 -24 23 -39 29 -20 7 -31 19 -36 39 -10
45 -25 225 -19 240 6 16 228 19 238 3z m375 -31 c11 -41 11 -42 -31 -85 l-43
-44 28 -29 c30 -31 27 -56 -6 -48 -23 6 -19 -12 6 -27 13 -9 20 -7 31 8 8 10
16 23 18 29 7 22 26 -6 41 -61 37 -133 38 -138 105 -274 49 -98 138 -233 197
-297 13 -14 24 -28 24 -31 0 -3 -97 -102 -215 -220 l-215 -214 -35 34 c-45 43
-50 63 -28 100 16 28 16 32 2 58 -9 15 -19 40 -23 56 -4 16 -19 45 -34 64 -23
30 -27 44 -25 98 1 35 -2 66 -8 69 -16 10 -10 36 12 54 20 16 20 19 6 61 -11
32 -21 46 -38 50 -22 5 -25 13 -34 96 -10 87 -12 92 -70 174 -52 74 -60 92
-62 135 -1 28 -4 68 -5 89 -3 38 -1 40 29 47 17 3 39 14 48 23 9 9 21 16 26
16 5 0 9 19 9 43 0 24 5 48 12 55 8 8 54 12 140 12 l127 0 11 -41z m638 29
c21 -21 13 -53 -18 -77 -37 -27 -74 -25 -78 5 -2 13 6 25 22 33 13 8 27 22 29
32 6 22 27 25 45 7z m2717 1 c8 -11 -10 -192 -26 -279 -65 -340 -189 -623
-386 -878 -73 -95 -123 -152 -133 -152 -4 0 -13 28 -20 63 -7 34 -19 69 -26
78 -8 8 -14 32 -14 52 0 48 -19 48 -56 0 -35 -47 -45 -54 -60 -42 -14 11 -4
71 19 119 9 18 17 46 17 61 0 15 5 31 10 34 6 3 10 43 10 89 0 70 -3 86 -21
105 -35 37 -101 12 -97 -38 3 -36 -7 -48 -45 -56 -17 -4 -37 -12 -44 -17 -20
-16 -68 -5 -68 16 0 19 7 25 60 48 16 7 34 23 41 35 6 13 27 34 48 48 51 35
85 76 86 103 0 12 6 32 13 45 28 50 39 57 91 57 60 0 71 6 85 43 11 27 43 37
56 17 9 -15 52 -12 85 5 40 20 109 43 145 47 18 2 31 9 33 20 5 24 -51 82
-100 103 -55 24 -78 43 -78 66 0 40 -44 134 -78 165 -19 17 -32 37 -28 43 10
15 472 16 481 0z m627 -109 c-4 -165 -40 -396 -82 -530 -4 -14 -13 -45 -20
-70 -79 -275 -278 -651 -467 -881 -119 -145 -160 -185 -174 -172 -13 13 -26
77 -35 180 -5 51 -11 66 -36 89 -27 27 -30 28 -56 13 -19 -10 -29 -25 -33 -52
-3 -20 -9 -40 -13 -44 -4 -4 -51 38 -106 92 l-100 99 17 26 c9 14 23 31 31 39
129 130 330 468 397 666 14 44 30 89 35 100 5 11 11 31 14 45 2 14 10 43 16
65 18 68 41 215 50 328 5 59 12 112 15 117 4 7 104 9 278 8 l272 -3 -3 -115z
m698 13 c0 -148 -41 -457 -80 -605 -6 -21 -14 -55 -20 -75 -22 -86 -62 -221
-80 -268 -59 -162 -88 -230 -151 -360 -135 -279 -342 -579 -551 -800 l-57 -60
-217 216 -217 217 84 98 c110 129 161 196 245 323 78 120 197 351 238 461 15
41 32 84 36 95 61 141 126 455 151 733 l12 132 304 0 303 0 0 -107z m-4532
-108 c18 -22 28 -25 84 -25 67 0 95 -16 111 -63 5 -13 13 -16 27 -12 32 10 63
-4 57 -26 -6 -23 33 -74 63 -82 17 -4 20 0 20 25 0 25 3 29 23 26 26 -4 35
-41 16 -64 -9 -10 -9 -18 -2 -22 15 -10 33 -48 33 -71 0 -12 4 -21 8 -21 16 0
32 25 32 50 0 29 8 41 35 56 14 8 21 24 23 55 3 40 24 79 42 79 4 0 28 -32 55
-71 l47 -72 -197 -196 -196 -196 -45 50 c-100 112 -187 266 -238 419 -42 127
-52 186 -32 186 8 0 23 -11 34 -25z m1480 -302 c3 -34 -1 -44 -18 -53 -12 -6
-28 -9 -36 -6 -20 7 -18 65 3 88 27 30 48 19 51 -29z m-689 -33 c93 -69 250
-130 334 -130 18 0 30 -6 33 -17 3 -10 10 -26 15 -36 7 -13 5 -27 -11 -51 -25
-41 -25 -42 1 -49 18 -5 19 -8 9 -28 -9 -16 -9 -27 0 -44 6 -12 10 -37 8 -56
l-3 -34 -60 0 c-54 0 -60 -2 -66 -25 -4 -14 -7 -46 -8 -72 -1 -36 3 -48 14
-48 8 0 15 -4 15 -10 0 -5 25 -10 55 -10 54 0 55 0 55 -30 0 -28 -3 -30 -37
-32 -21 -1 -49 -1 -62 0 -13 1 -31 -3 -40 -8 -19 -10 -165 18 -253 49 -128 44
-314 153 -408 239 l-45 41 195 196 c107 107 197 195 201 195 3 0 29 -18 58
-40z m1209 -29 c3 -17 8 -20 23 -16 11 4 30 -2 48 -14 16 -12 36 -21 45 -21 8
0 23 -11 32 -25 13 -20 14 -28 4 -40 -14 -17 -56 -20 -65 -4 -4 6 -22 9 -41 7
-48 -4 -94 42 -94 93 0 50 41 68 48 20z m-511 -87 c3 -10 -4 -26 -19 -41 -22
-22 -31 -24 -67 -18 -36 6 -42 10 -39 28 2 16 11 23 33 25 17 2 34 8 40 13 15
14 45 11 52 -7z m-159 -45 c1 -14 -7 -35 -23 -53 -13 -16 -22 -32 -20 -36 3
-4 -2 -13 -10 -20 -20 -17 -27 3 -23 71 3 47 6 54 28 60 36 10 45 6 48 -22z
m549 -49 c28 -5 57 -11 62 -15 18 -10 13 -55 -6 -61 -10 -3 -26 -10 -35 -15
-10 -5 -31 -9 -47 -9 -18 0 -41 -12 -65 -33 -30 -28 -36 -40 -36 -74 0 -38 11
-53 40 -53 4 0 30 18 56 40 27 22 54 40 61 40 13 0 53 -47 53 -62 0 -45 -303
-192 -442 -215 -44 -6 -68 8 -68 41 0 25 -17 46 -37 46 -8 0 -27 -10 -43 -21
-22 -17 -37 -20 -61 -15 -46 9 -59 23 -59 65 0 47 28 75 94 95 45 14 52 13 87
-5 21 -10 45 -19 53 -19 8 0 22 -7 31 -17 14 -14 18 -14 26 -2 10 16 -6 31
-62 62 -32 18 -33 19 -14 33 20 15 54 18 71 6 6 -4 25 -28 43 -54 17 -27 38
-48 46 -48 17 0 75 -33 75 -42 0 -5 14 -8 30 -8 32 0 40 17 13 27 -9 4 -34 24
-56 45 -43 42 -44 68 -2 68 20 0 25 5 25 24 0 14 5 28 10 31 11 7 3 53 -13 73
-14 17 7 32 46 32 22 0 27 5 27 23 0 30 10 40 29 31 9 -4 39 -10 68 -14z
m-1552 -235 c118 -105 327 -222 475 -266 119 -35 121 -41 29 -115 -42 -33 -59
-54 -59 -71 0 -23 -40 -96 -60 -108 -19 -12 -10 -36 20 -53 17 -9 33 -28 37
-42 3 -13 10 -29 16 -35 5 -5 21 -35 36 -65 16 -35 33 -56 46 -58 11 -2 27
-10 35 -17 8 -7 44 -16 80 -20 36 -4 70 -12 77 -17 6 -5 37 -12 68 -15 55 -6
56 -6 53 -36 l-3 -30 -85 2 c-47 1 -137 11 -200 22 -107 18 -134 24 -222 48
-44 11 -128 40 -153 51 -11 5 -56 24 -100 43 -168 73 -384 213 -515 335 l-55
51 215 215 c118 119 217 216 220 216 3 0 23 -16 45 -35z m1722 -116 c27 -12
64 -28 83 -36 19 -9 43 -19 52 -24 10 -5 38 -9 63 -9 25 0 60 -8 78 -17 18 -9
50 -19 71 -22 44 -7 71 -35 46 -51 -8 -5 -48 -10 -89 -10 -66 0 -82 4 -153 40
-44 22 -90 40 -102 40 -34 0 -128 48 -122 62 3 7 9 21 12 31 8 21 4 21 61 -4z
m688 -419 c64 -65 69 -72 57 -91 -19 -30 2 -51 22 -23 14 18 15 18 45 -10 17
-17 31 -40 31 -53 0 -13 4 -31 9 -41 6 -9 12 -29 16 -44 5 -26 9 -28 53 -28
72 0 83 -12 47 -51 -40 -42 -245 -206 -318 -254 -68 -45 -91 -38 -52 15 34 46
32 77 -5 98 -38 21 -36 51 3 70 15 7 27 19 27 26 0 6 18 30 40 51 43 42 50 73
24 100 -9 9 -54 48 -100 87 -76 64 -84 73 -84 106 0 28 8 42 42 74 23 21 49
38 57 38 9 0 48 -32 86 -70z m-2621 -168 c104 -69 315 -172 431 -211 168 -56
358 -95 533 -106 l102 -7 0 -278 c0 -154 -3 -281 -8 -284 -10 -6 -239 11 -322
24 -493 78 -911 262 -1285 565 -49 41 -108 92 -129 114 l-40 41 34 35 c19 19
37 35 41 35 5 0 14 -12 21 -27 7 -16 19 -28 26 -27 6 1 54 2 105 3 83 1 97 4
122 25 28 24 85 36 180 36 28 0 56 5 63 12 19 19 14 62 -9 92 -11 15 -18 34
-15 42 5 13 11 12 37 -8 17 -13 68 -47 113 -76z m-762 11 c33 -32 35 -53 8
-78 -20 -18 -21 -18 -60 20 -38 37 -49 63 -33 78 15 16 59 5 85 -20z m2017
-173 c24 -11 58 -20 76 -20 25 0 35 -5 40 -21 4 -11 4 -24 0 -27 -4 -4 -58 -9
-121 -11 l-114 -3 0 35 c0 26 6 40 22 51 29 21 44 20 97 -4z m-1921 -133 c120
-104 268 -212 387 -283 75 -44 288 -154 299 -154 3 0 31 -12 62 -26 213 -97
565 -179 824 -190 63 -3 125 -7 138 -10 l22 -4 0 -312 0 -311 -122 7 c-220 12
-384 36 -628 93 -110 26 -116 27 -245 69 -348 112 -713 308 -1020 549 -88 69
-248 213 -254 228 -3 7 416 437 426 437 2 0 51 -42 111 -93z m3871 -122 c193
-193 213 -216 200 -231 -28 -34 -198 -181 -297 -257 -392 -299 -881 -520
-1357 -612 -207 -40 -337 -55 -500 -58 l-110 -2 -3 302 c-2 280 -1 303 15 311
10 5 74 12 143 16 162 8 285 26 445 66 146 36 181 34 203 -14 10 -20 18 -26
30 -20 10 4 38 10 63 13 25 4 58 17 74 29 15 12 33 22 40 22 11 0 122 85 145
110 32 35 211 174 308 239 67 45 133 90 145 100 12 10 63 53 113 94 49 42 96
83 103 91 8 9 16 16 20 16 4 0 103 -97 220 -215z m-1701 85 c23 0 42 -19 42
-42 0 -10 7 -21 15 -25 33 -12 60 -103 35 -118 -20 -12 -11 -84 15 -126 26
-40 29 -43 75 -53 31 -7 96 -84 83 -97 -10 -10 -87 -31 -178 -47 -203 -37
-422 -57 -443 -40 -9 8 -12 72 -10 282 l3 271 95 8 c52 4 113 11 135 16 30 5
49 3 77 -11 21 -10 45 -18 56 -18z"/>
<path d="M5880 9220 c0 -13 11 -13 30 0 12 8 11 10 -7 10 -13 0 -23 -4 -23
-10z"/>
<path d="M6051 9141 c-8 -6 -9 -11 -3 -15 6 -3 14 -1 17 5 9 14 2 20 -14 10z"/>
<path d="M5805 9087 c-11 -8 -38 -17 -59 -21 -22 -4 -48 -14 -59 -21 -10 -7
-27 -11 -38 -8 -14 4 -19 0 -19 -15 0 -34 68 -45 104 -17 14 10 45 15 102 15
60 0 85 4 91 14 4 8 17 15 28 18 11 2 20 10 20 18 0 11 -13 15 -50 16 -27 0
-61 4 -75 8 -16 4 -32 1 -45 -7z"/>
<path d="M5485 9006 c-27 -13 -63 -29 -80 -37 l-30 -12 50 -8 c27 -4 54 -15
60 -23 6 -8 29 -18 50 -22 22 -4 55 -20 73 -35 18 -16 37 -29 42 -29 18 0 10
26 -15 50 -14 13 -25 30 -25 37 0 23 -38 90 -55 97 -20 7 -10 10 -70 -18z"/>
<path d="M6855 8594 c-26 -20 -12 -42 42 -63 22 -9 50 -24 60 -33 28 -26 35
-22 28 15 -9 39 -62 97 -89 97 -12 0 -30 -7 -41 -16z"/>
<path d="M4940 8405 c0 -17 39 -35 76 -35 13 0 24 5 24 10 0 6 -6 10 -14 10
-7 0 -19 7 -26 15 -17 20 -60 20 -60 0z"/>
<path d="M5875 8520 c-8 -13 3 -30 19 -30 7 0 25 -10 40 -21 15 -12 29 -19 32
-16 12 12 -9 48 -36 62 -34 18 -47 19 -55 5z"/>
<path d="M5775 8490 c10 -11 20 -20 22 -20 2 0 -2 9 -9 20 -7 11 -17 20 -22
20 -5 0 -1 -9 9 -20z"/>
<path d="M6004 8204 c3 -9 6 -24 6 -35 0 -11 10 -24 23 -29 26 -11 112 -65
156 -98 17 -13 31 -19 31 -14 0 12 -67 72 -80 72 -18 0 -70 52 -70 71 0 14 -7
19 -25 19 -16 0 -25 6 -25 15 0 8 -5 15 -11 15 -6 0 -8 -7 -5 -16z"/>
<path d="M4660 7520 c0 -5 7 -10 16 -10 8 0 12 5 9 10 -3 6 -10 10 -16 10 -5
0 -9 -4 -9 -10z"/>
<path d="M7074 7374 c3 -9 6 -20 6 -25 0 -12 76 -59 95 -59 24 0 17 18 -12 34
-16 8 -39 26 -52 40 -27 29 -46 34 -37 10z"/>
<path d="M7153 7222 c10 -10 17 -24 17 -30 0 -6 10 -12 22 -14 18 -2 24 -12
29 -40 6 -37 24 -68 40 -68 15 0 10 32 -13 79 -25 52 -64 90 -92 91 -18 0 -18
-1 -3 -18z"/>
<path d="M7279 6979 c-14 -27 0 -84 41 -163 16 -33 30 -74 30 -92 0 -18 5 -36
11 -40 16 -10 1 166 -15 186 -7 8 -18 41 -25 73 -13 61 -23 70 -42 36z"/>
<path d="M6799 7153 c-8 -2 -21 -19 -28 -38 -8 -24 -19 -35 -32 -35 -20 0 -26
-15 -9 -25 14 -9 12 -88 -2 -107 -7 -9 -22 -18 -33 -20 -12 -2 -20 -11 -20
-23 0 -30 69 -34 87 -6 10 17 23 21 66 21 33 0 51 4 47 10 -3 6 -21 10 -39 10
-18 0 -41 6 -52 14 -19 14 -19 15 4 38 12 14 22 32 22 42 0 10 9 20 20 23 17
4 20 14 20 54 0 51 -5 55 -51 42z"/>
<path d="M6568 6833 c7 -3 16 -2 19 1 4 3 -2 6 -13 5 -11 0 -14 -3 -6 -6z"/>
<path d="M7035 6160 c-18 -8 -17 -9 8 -9 15 -1 27 4 27 9 0 12 -8 12 -35 0z"/>
<path d="M5898 6952 c-37 -4 -35 -12 10 -41 43 -28 85 -20 90 17 2 15 -1 20
-11 17 -7 -3 -24 -2 -38 2 -13 5 -36 7 -51 5z"/>
<path d="M5002 6218 c-7 -7 -8 -17 -1 -29 10 -20 -7 -59 -26 -59 -19 0 -71
-64 -95 -117 -20 -45 -28 -53 -50 -53 -14 0 -31 -5 -38 -12 -17 -17 -15 -83 3
-98 27 -22 49 -6 85 65 27 52 45 74 71 87 50 25 59 35 59 68 0 19 10 40 30 60
34 35 36 47 14 78 -17 24 -34 28 -52 10z"/>
<path d="M5546 5973 c-13 -13 -5 -42 25 -82 38 -53 48 -47 20 12 -11 24 -21
48 -21 55 0 14 -15 24 -24 15z"/>
<path d="M5374 5855 c-8 -21 6 -41 17 -24 12 19 11 39 -1 39 -6 0 -13 -7 -16
-15z"/>
<path d="M5090 5567 c0 -35 44 -53 76 -32 34 22 30 35 -11 35 -19 0 -35 5 -35
10 0 6 -7 10 -15 10 -9 0 -15 -9 -15 -23z"/>
<path d="M2365 4720 c3 -5 11 -10 16 -10 6 0 7 5 4 10 -3 6 -11 10 -16 10 -6
0 -7 -4 -4 -10z"/>
<path d="M2401 4684 c0 -11 3 -14 6 -6 3 7 2 16 -1 19 -3 4 -6 -2 -5 -13z"/>
<path d="M2550 4558 c0 -39 79 -142 95 -126 7 7 -23 64 -40 78 -8 7 -15 18
-15 26 0 7 -9 18 -20 24 -15 8 -20 8 -20 -2z"/>
<path d="M3783 5932 c12 -13 17 -37 17 -78 0 -72 -9 -88 -44 -82 -22 4 -26 2
-26 -18 0 -14 6 -24 14 -24 7 0 25 -9 40 -21 l26 -20 0 130 c0 127 -1 131 -22
131 -20 0 -20 -1 -5 -18z"/>
<path d="M3760 5630 c0 -36 39 -99 58 -93 15 6 16 44 0 80 -7 15 -12 29 -13
29 0 1 -10 5 -22 8 -21 7 -23 4 -23 -24z"/>
<path d="M7095 5761 c-7 -13 33 -34 51 -27 8 3 14 12 14 21 0 17 -55 22 -65 6z"/>
<path d="M6742 5045 c0 -16 2 -22 5 -12 2 9 2 23 0 30 -3 6 -5 -1 -5 -18z"/>
<path d="M7370 4710 c0 -5 5 -10 10 -10 6 0 10 5 10 10 0 6 -4 10 -10 10 -5 0
-10 -4 -10 -10z"/>
<path d="M8331 5074 c0 -11 3 -14 6 -6 3 7 2 16 -1 19 -3 4 -6 -2 -5 -13z"/>
<path d="M8187 4953 c-13 -12 -7 -33 8 -33 8 0 15 9 15 20 0 20 -11 26 -23 13z"/>
<path d="M5156 5285 c-7 -29 -1 -45 17 -45 21 0 35 15 42 43 7 25 5 27 -23 27
-24 0 -31 -5 -36 -25z"/>
<path d="M5580 4920 c0 -5 5 -10 11 -10 5 0 7 5 4 10 -3 6 -8 10 -11 10 -2 0
-4 -4 -4 -10z"/>
<path d="M4790 3961 c0 -6 5 -13 10 -16 6 -3 10 1 10 9 0 9 -4 16 -10 16 -5 0
-10 -4 -10 -9z"/>
<path d="M5055 3710 c3 -5 11 -10 16 -10 6 0 7 5 4 10 -3 6 -11 10 -16 10 -6
0 -7 -4 -4 -10z"/>
<path d="M3340 3530 c0 -23 33 -60 55 -60 8 0 15 3 15 8 0 14 -31 52 -51 62
-16 9 -19 7 -19 -10z"/>
<path d="M2630 9084 c-47 -19 -98 -41 -115 -48 -16 -8 -56 -26 -88 -40 -31
-14 -99 -50 -150 -79 -315 -186 -463 -381 -567 -747 -7 -25 -28 -92 -47 -149
-19 -57 -31 -106 -28 -109 3 -3 22 10 43 30 20 19 73 63 117 98 79 63 221 186
260 225 68 69 110 122 204 254 152 215 181 253 254 346 43 55 112 135 154 178
42 42 70 77 62 77 -8 -1 -52 -16 -99 -36z"/>
<path d="M7968 9025 c89 -94 215 -255 367 -470 118 -166 208 -274 283 -341 52
-47 310 -260 367 -305 14 -11 -133 444 -168 521 -68 146 -236 335 -390 434
-74 49 -295 166 -311 166 -3 0 -29 11 -58 24 -73 34 -157 66 -169 66 -6 0 29
-43 79 -95z"/>
<path d="M1742 8635 c-87 -41 -162 -95 -261 -190 -101 -97 -155 -169 -197
-261 -41 -92 -38 -84 -73 -219 -24 -97 -34 -252 -26 -440 4 -104 10 -281 14
-393 l6 -202 59 90 c74 112 198 240 339 348 258 199 445 388 551 557 82 130
146 305 146 398 l0 42 -24 -47 c-68 -134 -165 -228 -426 -413 -169 -120 -246
-185 -338 -288 -41 -46 -128 -179 -153 -234 -47 -103 -45 -30 3 102 68 185 98
293 138 500 32 164 70 304 101 372 10 24 19 45 19 49 0 17 100 157 145 202 58
58 54 63 -23 27z"/>
<path d="M8855 8609 c114 -121 181 -257 230 -464 25 -110 33 -145 46 -215 19
-105 66 -278 99 -370 79 -215 92 -297 26 -170 -39 77 -110 182 -157 235 -15
17 -36 39 -46 50 -41 46 -156 139 -298 240 -82 59 -177 131 -209 159 -78 67
-174 181 -209 247 -16 30 -26 43 -24 29 3 -14 9 -47 12 -75 9 -64 48 -183 86
-259 99 -196 299 -410 604 -648 137 -107 274 -248 344 -355 30 -46 56 -83 58
-83 3 0 1 39 -2 88 -4 53 0 183 10 332 41 583 -28 846 -286 1096 -107 103
-226 184 -309 209 -21 6 -17 -1 25 -46z"/>
<path d="M1023 7912 c-40 -59 -81 -124 -92 -144 -12 -21 -29 -53 -39 -70 -20
-35 -84 -199 -101 -258 -46 -161 -56 -235 -55 -420 0 -163 4 -196 36 -325 14
-57 101 -325 138 -425 30 -82 61 -173 79 -235 8 -28 16 -57 40 -151 6 -23 11
-54 11 -68 0 -44 22 -25 36 29 41 161 132 330 325 605 225 319 330 490 381
619 36 92 58 159 58 178 0 12 4 24 9 27 9 6 16 41 27 136 l5 45 -36 -53 c-20
-29 -77 -92 -127 -140 -241 -229 -367 -358 -413 -420 -27 -37 -53 -69 -57 -72
-14 -11 -118 -220 -118 -238 0 -10 -3 -22 -7 -26 -9 -9 -31 -110 -32 -146 -2
-39 -21 -100 -32 -100 -12 0 -9 74 11 381 13 197 8 339 -20 549 -57 420 -52
551 27 759 13 35 22 65 20 67 -1 2 -35 -45 -74 -104z"/>
<path d="M9536 7973 c16 -38 33 -93 53 -169 16 -61 13 -371 -4 -499 -35 -248
-40 -308 -39 -485 0 -142 15 -455 25 -517 3 -21 -2 -33 -15 -33 -9 0 -17 24
-25 78 -22 143 -29 166 -90 294 -74 154 -192 290 -522 604 -69 65 -138 141
-153 167 -16 26 -30 46 -32 44 -4 -3 18 -112 35 -177 6 -19 14 -51 19 -70 5
-19 24 -73 42 -119 58 -150 125 -264 285 -491 280 -397 368 -550 425 -740 12
-41 23 -79 24 -85 1 -5 8 20 16 55 32 160 62 261 140 470 49 132 106 309 120
370 7 30 16 66 21 80 20 62 32 286 20 401 -15 154 -45 287 -82 374 -4 11 -20
49 -35 85 -27 67 -72 154 -127 244 -33 55 -107 156 -113 156 -2 0 3 -17 12
-37z"/>
<path d="M606 6738 c-23 -81 -38 -139 -46 -178 -5 -25 -16 -75 -24 -112 -63
-290 12 -847 151 -1123 43 -85 175 -280 213 -315 6 -5 227 -277 253 -310 36
-46 66 -91 97 -142 37 -62 55 -75 43 -30 -3 15 -7 110 -7 212 -1 206 6 244 94
520 32 99 69 224 86 285 8 33 20 76 26 95 30 110 60 263 98 505 19 124 32 283
28 355 l-3 75 -14 -45 c-7 -25 -17 -54 -21 -65 -5 -11 -16 -42 -26 -70 -21
-59 -30 -76 -119 -220 -296 -479 -367 -740 -309 -1133 3 -23 10 -45 15 -48 12
-7 12 -51 0 -58 -17 -11 -61 140 -101 349 -22 112 -86 332 -116 395 -7 14 -27
59 -44 100 -18 41 -49 111 -70 155 -20 44 -54 123 -74 175 -21 52 -42 103 -47
112 -5 10 -9 25 -9 33 0 8 -4 23 -10 33 -31 57 -64 297 -55 400 7 72 3 92 -9
50z"/>
<path d="M10000 6622 c0 -211 -49 -383 -207 -722 -69 -148 -121 -277 -153
-375 -30 -96 -36 -121 -61 -245 -6 -30 -14 -73 -19 -95 -15 -77 -49 -194 -65
-225 -19 -37 -37 -31 -25 8 46 149 61 306 40 428 -49 280 -140 490 -361 835
-55 85 -97 180 -119 266 -23 89 -33 50 -26 -96 7 -125 13 -181 46 -390 25
-158 68 -344 125 -536 14 -49 30 -103 35 -120 4 -16 14 -50 22 -75 35 -104 82
-273 97 -348 14 -71 14 -278 -1 -358 -6 -35 -8 -67 -3 -71 4 -5 9 -3 11 2 15
39 148 220 279 380 179 217 300 392 343 497 81 194 152 567 151 793 0 79 -20
253 -38 330 -5 22 -14 60 -19 85 -41 176 -51 183 -52 32z"/>
<path d="M9042 5433 c-16 -30 -69 -194 -86 -263 -21 -89 -52 -274 -65 -395 -6
-55 -16 -136 -21 -181 -6 -44 -10 -100 -10 -123 0 -24 -4 -82 -10 -130 -5 -47
-17 -149 -25 -226 -15 -132 -25 -197 -45 -290 -5 -22 -14 -65 -21 -95 -6 -30
-40 -115 -75 -188 -35 -73 -64 -137 -64 -142 0 -5 88 48 195 118 107 70 240
156 297 192 493 311 795 639 911 990 61 187 88 359 86 554 l0 81 -34 -100
c-69 -210 -168 -354 -416 -606 -318 -324 -398 -417 -510 -596 -76 -121 -143
-203 -165 -203 -17 0 -10 21 26 75 31 48 52 91 78 165 100 287 105 486 22 860
-37 169 -52 276 -53 392 -1 70 -3 128 -4 128 -1 0 -6 -8 -11 -17z"/>
<path d="M1571 5352 c-1 -98 -28 -275 -72 -467 -46 -200 -57 -440 -28 -595 30
-158 88 -316 148 -405 20 -29 28 -65 15 -65 -14 0 -71 74 -161 210 -127 191
-192 270 -403 485 -98 99 -197 202 -221 230 -24 27 -50 56 -58 65 -23 24 -124
162 -143 195 -10 17 -32 59 -49 95 -17 36 -34 72 -38 80 -4 8 -14 39 -21 68
-8 28 -18 52 -23 52 -11 0 -1 -272 13 -340 5 -25 14 -72 21 -105 59 -302 254
-599 568 -864 140 -119 278 -214 666 -459 50 -31 113 -73 140 -93 75 -54 78
-55 70 -28 -4 13 -25 60 -47 104 -68 136 -82 176 -108 305 -30 148 -54 330
-71 540 -48 576 -97 860 -182 1050 -16 35 -16 35 -16 -58z"/>
<path d="M1900 4474 c0 -6 7 -29 16 -50 9 -22 20 -52 25 -69 4 -16 14 -55 22
-85 17 -62 40 -179 56 -290 7 -41 16 -94 21 -118 6 -23 10 -54 10 -68 0 -15 4
-43 9 -63 5 -20 15 -63 22 -96 38 -188 108 -354 203 -482 28 -37 99 -118 159
-180 60 -61 105 -113 100 -116 -16 -10 -105 47 -237 154 -176 142 -271 196
-700 404 -365 177 -557 324 -698 535 -66 97 -70 102 -64 65 7 -39 18 -75 38
-125 6 -14 14 -34 18 -45 9 -24 75 -155 104 -207 99 -177 352 -443 567 -597
194 -139 335 -202 579 -259 139 -32 178 -40 315 -62 141 -23 298 -54 358 -70
100 -27 108 -28 98 -17 -5 7 -35 39 -66 72 -71 76 -151 189 -202 285 -62 117
-153 350 -210 535 -8 28 -19 59 -23 70 -5 11 -25 65 -45 120 -74 201 -182 391
-341 600 -109 143 -133 172 -134 159z"/>
<path d="M8635 4378 c-218 -278 -338 -490 -421 -745 -8 -27 -19 -57 -24 -68
-4 -11 -29 -83 -55 -160 -25 -77 -50 -149 -54 -160 -22 -53 -31 -74 -51 -120
-43 -99 -55 -121 -103 -203 -49 -84 -190 -262 -207 -262 -5 0 -14 -9 -19 -19
-10 -18 -8 -18 27 -9 105 27 215 51 312 68 52 9 154 27 285 51 420 76 672 207
984 512 169 165 283 321 376 512 46 95 101 252 92 262 -2 2 -28 -34 -57 -79
-75 -117 -220 -257 -360 -350 -63 -42 -212 -125 -330 -183 -449 -222 -544
-276 -680 -386 -144 -116 -265 -197 -278 -184 -3 2 45 56 106 120 262 272 343
459 412 950 25 172 64 359 90 430 21 59 40 119 37 121 -2 2 -39 -42 -82 -98z"/>
<path d="M7935 3413 c-148 -112 -241 -195 -531 -473 -215 -206 -270 -255 -340
-305 -128 -92 -331 -178 -526 -225 -44 -10 -83 -21 -85 -24 -5 -5 29 -11 116
-21 51 -6 208 -43 351 -84 141 -41 387 -93 570 -123 102 -16 418 -16 500 0
332 66 586 197 821 424 80 76 209 234 209 254 0 7 6 14 13 17 6 2 9 7 6 11 -3
3 -30 -15 -59 -40 -123 -105 -248 -172 -415 -222 -194 -58 -323 -76 -750 -103
-311 -19 -411 -32 -648 -84 -43 -9 -90 -14 -105 -10 l-27 7 24 18 c14 9 49 23
80 30 187 44 325 121 445 250 86 94 138 177 269 430 103 201 129 248 162 298
15 24 26 44 24 47 -3 2 -50 -30 -104 -72z"/>
<path d="M2601 3443 c12 -21 30 -49 39 -63 9 -14 47 -86 85 -160 127 -251 160
-310 230 -410 89 -126 214 -234 335 -288 62 -27 73 -31 174 -57 48 -13 95 -30
104 -38 14 -14 13 -16 -10 -22 -22 -6 -56 0 -228 36 -123 25 -371 52 -605 64
-383 19 -638 68 -840 160 -76 34 -191 110 -254 165 -68 61 -48 18 55 -116 211
-273 561 -482 934 -556 84 -16 421 -16 515 1 141 25 172 31 270 52 96 20 230
54 475 118 63 16 142 32 175 36 77 8 118 16 112 21 -2 2 -49 16 -103 29 -201
51 -366 120 -488 205 -85 58 -168 133 -439 394 -246 236 -517 466 -548 466 -6
0 0 -17 12 -37z"/>
<path d="M4720 2394 c-267 -22 -568 -113 -945 -285 -345 -157 -454 -188 -701
-196 -127 -4 -184 -2 -264 12 -120 20 -255 62 -351 111 -38 18 -72 34 -76 34
-17 0 147 -148 212 -191 145 -97 312 -175 465 -217 88 -24 110 -26 295 -26
171 0 213 3 290 22 119 30 198 53 210 64 5 4 15 8 23 8 22 0 232 105 312 157
42 26 132 89 200 138 133 96 206 145 216 145 3 0 18 8 32 18 36 25 126 60 198
77 68 17 211 19 248 5 26 -10 36 -30 14 -30 -15 0 -218 -99 -299 -146 -174
-102 -414 -273 -573 -409 -95 -81 -196 -177 -196 -186 0 -9 87 -94 148 -144
l33 -27 148 148 c136 137 207 204 319 307 162 147 379 300 539 381 l91 45 91
-44 c223 -109 472 -304 789 -619 111 -110 211 -202 220 -204 11 -2 51 28 103
77 l84 79 -30 32 c-39 41 -237 210 -340 290 -110 86 -300 212 -421 281 -102
58 -268 139 -285 139 -5 0 -9 5 -9 10 0 19 50 30 130 30 167 0 303 -54 521
-207 261 -184 324 -224 429 -275 58 -28 116 -55 130 -61 14 -5 34 -13 45 -18
46 -19 116 -38 215 -61 139 -31 421 -33 540 -5 162 39 324 110 480 212 93 60
230 178 230 196 0 5 -31 -6 -68 -25 -312 -157 -771 -169 -1083 -28 -24 11 -73
32 -109 47 -36 15 -83 35 -105 45 -22 10 -74 32 -115 50 -41 17 -90 38 -107
46 -79 36 -267 101 -378 132 -178 49 -296 65 -465 65 -151 -1 -267 -17 -449
-63 -36 -9 -58 -7 -145 14 -161 40 -362 60 -486 50z"/>
</g>
</svg>
